<mxfile host="app.diagrams.net" modified="2023-06-29T18:05:54.381Z" agent="Mozilla/5.0 (Windows NT 10.0; Win64; x64; rv:109.0) Gecko/20100101 Firefox/114.0" etag="R0gKztd0lFfYyl1aFuYe" version="21.5.2" type="device">
  <diagram name="Page-1" id="13e1069c-82ec-6db2-03f1-153e76fe0fe0">
    <mxGraphModel dx="2074" dy="1156" grid="1" gridSize="10" guides="1" tooltips="1" connect="1" arrows="1" fold="1" page="1" pageScale="1" pageWidth="1169" pageHeight="827" background="none" math="0" shadow="0">
      <root>
        <mxCell id="0" />
        <mxCell id="1" parent="0" />
        <mxCell id="4OpmEVITyhqgEpw4jAax-34" value="" style="endArrow=none;dashed=1;html=1;strokeWidth=2;rounded=0;fillColor=#d80073;strokeColor=#A50040;" parent="1" edge="1">
          <mxGeometry width="50" height="50" relative="1" as="geometry">
            <mxPoint x="560" y="590" as="sourcePoint" />
            <mxPoint x="560" y="80" as="targetPoint" />
          </mxGeometry>
        </mxCell>
        <mxCell id="ViJoWk9CiPrS-4_b_MEM-12" value="ClientImpl" style="shape=umlLifeline;perimeter=lifelinePerimeter;whiteSpace=wrap;html=1;container=1;dropTarget=0;collapsible=0;recursiveResize=0;outlineConnect=0;portConstraint=eastwest;newEdgeStyle={&quot;edgeStyle&quot;:&quot;elbowEdgeStyle&quot;,&quot;elbow&quot;:&quot;vertical&quot;,&quot;curved&quot;:0,&quot;rounded&quot;:0};fillColor=#6d8764;fontColor=#ffffff;strokeColor=#3A5431;" parent="1" vertex="1">
          <mxGeometry x="370" y="90" width="180" height="350" as="geometry" />
        </mxCell>
        <mxCell id="ViJoWk9CiPrS-4_b_MEM-22" value="" style="html=1;points=[];perimeter=orthogonalPerimeter;outlineConnect=0;targetShapes=umlLifeline;portConstraint=eastwest;newEdgeStyle={&quot;edgeStyle&quot;:&quot;elbowEdgeStyle&quot;,&quot;elbow&quot;:&quot;vertical&quot;,&quot;curved&quot;:0,&quot;rounded&quot;:0};" parent="ViJoWk9CiPrS-4_b_MEM-12" vertex="1">
          <mxGeometry x="85" y="80" width="10" height="250" as="geometry" />
        </mxCell>
        <mxCell id="ViJoWk9CiPrS-4_b_MEM-14" value="&lt;div&gt;ClientHandlerImpl&lt;/div&gt;" style="shape=umlLifeline;perimeter=lifelinePerimeter;whiteSpace=wrap;html=1;container=1;dropTarget=0;collapsible=0;recursiveResize=0;outlineConnect=0;portConstraint=eastwest;newEdgeStyle={&quot;edgeStyle&quot;:&quot;elbowEdgeStyle&quot;,&quot;elbow&quot;:&quot;vertical&quot;,&quot;curved&quot;:0,&quot;rounded&quot;:0};fillColor=#647687;fontColor=#ffffff;strokeColor=#314354;" parent="1" vertex="1">
          <mxGeometry x="570" y="90" width="230" height="350" as="geometry" />
        </mxCell>
        <mxCell id="4OpmEVITyhqgEpw4jAax-1" value="" style="html=1;points=[];perimeter=orthogonalPerimeter;outlineConnect=0;targetShapes=umlLifeline;portConstraint=eastwest;newEdgeStyle={&quot;edgeStyle&quot;:&quot;elbowEdgeStyle&quot;,&quot;elbow&quot;:&quot;vertical&quot;,&quot;curved&quot;:0,&quot;rounded&quot;:0};" parent="ViJoWk9CiPrS-4_b_MEM-14" vertex="1">
          <mxGeometry x="110" y="160" width="10" height="170" as="geometry" />
        </mxCell>
        <mxCell id="ViJoWk9CiPrS-4_b_MEM-15" value="&lt;div&gt;ServerImpl&lt;br&gt;&lt;/div&gt;" style="shape=umlLifeline;perimeter=lifelinePerimeter;whiteSpace=wrap;html=1;container=1;dropTarget=0;collapsible=0;recursiveResize=0;outlineConnect=0;portConstraint=eastwest;newEdgeStyle={&quot;edgeStyle&quot;:&quot;elbowEdgeStyle&quot;,&quot;elbow&quot;:&quot;vertical&quot;,&quot;curved&quot;:0,&quot;rounded&quot;:0};fillColor=#647687;fontColor=#ffffff;strokeColor=#314354;" parent="1" vertex="1">
          <mxGeometry x="840" y="90" width="260" height="350" as="geometry" />
        </mxCell>
        <mxCell id="4OpmEVITyhqgEpw4jAax-2" value="" style="html=1;points=[];perimeter=orthogonalPerimeter;outlineConnect=0;targetShapes=umlLifeline;portConstraint=eastwest;newEdgeStyle={&quot;edgeStyle&quot;:&quot;elbowEdgeStyle&quot;,&quot;elbow&quot;:&quot;vertical&quot;,&quot;curved&quot;:0,&quot;rounded&quot;:0};" parent="ViJoWk9CiPrS-4_b_MEM-15" vertex="1">
          <mxGeometry x="125" y="70" width="10" height="130" as="geometry" />
        </mxCell>
        <mxCell id="4OpmEVITyhqgEpw4jAax-3" value="" style="endArrow=classic;html=1;rounded=0;verticalAlign=top;" parent="1" edge="1">
          <mxGeometry width="50" height="50" relative="1" as="geometry">
            <mxPoint x="165" y="170" as="sourcePoint" />
            <mxPoint x="460" y="170" as="targetPoint" />
          </mxGeometry>
        </mxCell>
        <mxCell id="4OpmEVITyhqgEpw4jAax-8" value="&lt;div&gt;Create&lt;/div&gt;" style="edgeLabel;html=1;align=left;verticalAlign=bottom;resizable=0;points=[];horizontal=1;labelBackgroundColor=default;spacingTop=0;spacingBottom=5;fontFamily=Lucida Console;" parent="4OpmEVITyhqgEpw4jAax-3" vertex="1" connectable="0">
          <mxGeometry x="-0.0834" y="-3" relative="1" as="geometry">
            <mxPoint x="-10" y="-3" as="offset" />
          </mxGeometry>
        </mxCell>
        <mxCell id="4OpmEVITyhqgEpw4jAax-10" value="&lt;div&gt;ClientApp&lt;/div&gt;" style="shape=umlLifeline;perimeter=lifelinePerimeter;whiteSpace=wrap;html=1;container=1;dropTarget=0;collapsible=0;recursiveResize=0;outlineConnect=0;portConstraint=eastwest;newEdgeStyle={&quot;edgeStyle&quot;:&quot;elbowEdgeStyle&quot;,&quot;elbow&quot;:&quot;vertical&quot;,&quot;curved&quot;:0,&quot;rounded&quot;:0};fillColor=#76608a;fontColor=#ffffff;strokeColor=#432D57;" parent="1" vertex="1">
          <mxGeometry x="70" y="90" width="180" height="350" as="geometry" />
        </mxCell>
        <mxCell id="4OpmEVITyhqgEpw4jAax-11" value="" style="html=1;points=[];perimeter=orthogonalPerimeter;outlineConnect=0;targetShapes=umlLifeline;portConstraint=eastwest;newEdgeStyle={&quot;edgeStyle&quot;:&quot;elbowEdgeStyle&quot;,&quot;elbow&quot;:&quot;vertical&quot;,&quot;curved&quot;:0,&quot;rounded&quot;:0};" parent="4OpmEVITyhqgEpw4jAax-10" vertex="1">
          <mxGeometry x="85" y="70" width="10" height="170" as="geometry" />
        </mxCell>
        <mxCell id="4OpmEVITyhqgEpw4jAax-12" value="" style="endArrow=classic;html=1;rounded=0;verticalAlign=top;" parent="1" target="4OpmEVITyhqgEpw4jAax-2" edge="1">
          <mxGeometry width="50" height="50" relative="1" as="geometry">
            <mxPoint x="165" y="190" as="sourcePoint" />
            <mxPoint x="965" y="190" as="targetPoint" />
          </mxGeometry>
        </mxCell>
        <mxCell id="4OpmEVITyhqgEpw4jAax-13" value="&lt;div&gt;Connect&lt;/div&gt;" style="edgeLabel;html=1;align=left;verticalAlign=bottom;resizable=0;points=[];horizontal=1;labelBackgroundColor=default;spacingTop=0;spacingBottom=5;fontFamily=Lucida Console;" parent="4OpmEVITyhqgEpw4jAax-12" vertex="1" connectable="0">
          <mxGeometry x="-0.0834" y="-3" relative="1" as="geometry">
            <mxPoint x="10" y="-3" as="offset" />
          </mxGeometry>
        </mxCell>
        <mxCell id="4OpmEVITyhqgEpw4jAax-14" value="" style="endArrow=classic;html=1;rounded=0;verticalAlign=top;" parent="1" edge="1">
          <mxGeometry width="50" height="50" relative="1" as="geometry">
            <mxPoint x="170" y="220" as="sourcePoint" />
            <mxPoint x="974.5" y="220" as="targetPoint" />
          </mxGeometry>
        </mxCell>
        <mxCell id="4OpmEVITyhqgEpw4jAax-15" value="&lt;div&gt;registerClient&lt;/div&gt;" style="edgeLabel;html=1;align=left;verticalAlign=bottom;resizable=0;points=[];horizontal=1;labelBackgroundColor=default;spacingTop=0;spacingBottom=5;fontFamily=Lucida Console;" parent="4OpmEVITyhqgEpw4jAax-14" vertex="1" connectable="0">
          <mxGeometry x="-0.0834" y="-3" relative="1" as="geometry">
            <mxPoint x="-9" y="-3" as="offset" />
          </mxGeometry>
        </mxCell>
        <mxCell id="4OpmEVITyhqgEpw4jAax-19" value="&lt;div&gt;return clientHandler&lt;/div&gt;" style="html=1;verticalAlign=bottom;endArrow=open;dashed=1;endSize=8;edgeStyle=elbowEdgeStyle;elbow=vertical;curved=0;rounded=0;fontFamily=Lucida Console;" parent="1" edge="1">
          <mxGeometry relative="1" as="geometry">
            <mxPoint x="965" y="280.22260869565224" as="sourcePoint" />
            <mxPoint x="165" y="280.22260869565224" as="targetPoint" />
          </mxGeometry>
        </mxCell>
        <mxCell id="4OpmEVITyhqgEpw4jAax-22" value="" style="endArrow=classic;html=1;rounded=0;verticalAlign=top;" parent="1" edge="1">
          <mxGeometry width="50" height="50" relative="1" as="geometry">
            <mxPoint x="965" y="250" as="sourcePoint" />
            <mxPoint x="690" y="250" as="targetPoint" />
          </mxGeometry>
        </mxCell>
        <mxCell id="4OpmEVITyhqgEpw4jAax-23" value="&lt;div&gt;Create&lt;/div&gt;" style="edgeLabel;html=1;align=left;verticalAlign=bottom;resizable=0;points=[];horizontal=1;labelBackgroundColor=default;spacingTop=0;spacingBottom=5;fontFamily=Lucida Console;" parent="4OpmEVITyhqgEpw4jAax-22" vertex="1" connectable="0">
          <mxGeometry x="-0.0834" y="-3" relative="1" as="geometry">
            <mxPoint x="-49" y="3" as="offset" />
          </mxGeometry>
        </mxCell>
        <mxCell id="4OpmEVITyhqgEpw4jAax-24" value="" style="endArrow=classic;html=1;rounded=0;verticalAlign=top;" parent="1" edge="1">
          <mxGeometry width="50" height="50" relative="1" as="geometry">
            <mxPoint x="165" y="320" as="sourcePoint" />
            <mxPoint x="455" y="320" as="targetPoint" />
          </mxGeometry>
        </mxCell>
        <mxCell id="4OpmEVITyhqgEpw4jAax-25" value="&lt;div&gt;setClientHandler&lt;/div&gt;" style="edgeLabel;html=1;align=left;verticalAlign=bottom;resizable=0;points=[];horizontal=1;labelBackgroundColor=default;spacingTop=0;spacingBottom=5;fontFamily=Lucida Console;" parent="4OpmEVITyhqgEpw4jAax-24" vertex="1" connectable="0">
          <mxGeometry x="-0.0834" y="-3" relative="1" as="geometry">
            <mxPoint x="-28" y="-3" as="offset" />
          </mxGeometry>
        </mxCell>
        <mxCell id="4OpmEVITyhqgEpw4jAax-27" value="" style="endArrow=classic;html=1;rounded=0;verticalAlign=top;" parent="1" edge="1">
          <mxGeometry width="50" height="50" relative="1" as="geometry">
            <mxPoint x="459.6304347826085" y="350" as="sourcePoint" />
            <mxPoint x="680" y="350" as="targetPoint" />
          </mxGeometry>
        </mxCell>
        <mxCell id="4OpmEVITyhqgEpw4jAax-28" value="&lt;div&gt;receiveMessage(msg: &lt;font color=&quot;#ff9933&quot;&gt;any&lt;/font&gt;)&lt;/div&gt;" style="edgeLabel;html=1;align=left;verticalAlign=bottom;resizable=0;points=[];horizontal=1;labelBackgroundColor=default;spacingTop=0;spacingBottom=5;fontFamily=Lucida Console;" parent="4OpmEVITyhqgEpw4jAax-27" vertex="1" connectable="0">
          <mxGeometry x="-0.0834" y="-3" relative="1" as="geometry">
            <mxPoint x="-70" y="-3" as="offset" />
          </mxGeometry>
        </mxCell>
        <mxCell id="4OpmEVITyhqgEpw4jAax-29" value="" style="endArrow=classic;html=1;rounded=0;verticalAlign=top;" parent="1" source="4OpmEVITyhqgEpw4jAax-1" target="ViJoWk9CiPrS-4_b_MEM-12" edge="1">
          <mxGeometry width="50" height="50" relative="1" as="geometry">
            <mxPoint x="480.0004347826085" y="430" as="sourcePoint" />
            <mxPoint x="700.37" y="430" as="targetPoint" />
            <Array as="points">
              <mxPoint x="530" y="410" />
            </Array>
          </mxGeometry>
        </mxCell>
        <mxCell id="4OpmEVITyhqgEpw4jAax-30" value="&lt;div&gt;receiveMessage(msg: GameViewMsg)&lt;/div&gt;" style="edgeLabel;html=1;align=left;verticalAlign=bottom;resizable=0;points=[];horizontal=1;labelBackgroundColor=default;spacingTop=0;spacingBottom=5;fontFamily=Lucida Console;" parent="4OpmEVITyhqgEpw4jAax-29" vertex="1" connectable="0">
          <mxGeometry x="-0.0834" y="-3" relative="1" as="geometry">
            <mxPoint x="-109" y="3" as="offset" />
          </mxGeometry>
        </mxCell>
        <mxCell id="4OpmEVITyhqgEpw4jAax-31" value="about &quot;&lt;font color=&quot;#ff9933&quot;&gt;any&lt;/font&gt;&quot;" style="shape=umlFrame;whiteSpace=wrap;html=1;pointerEvents=0;width=80;height=30;fillColor=default;shadow=0;gradientColor=none;swimlaneFillColor=default;" parent="1" vertex="1">
          <mxGeometry x="470" y="450" width="200" height="120" as="geometry" />
        </mxCell>
        <mxCell id="4OpmEVITyhqgEpw4jAax-32" value="&lt;div align=&quot;left&quot;&gt;&lt;font face=&quot;Lucida Console&quot;&gt;String: player Name&lt;br&gt;Integer: players Number&lt;/font&gt;&lt;/div&gt;&lt;div align=&quot;left&quot;&gt;&lt;font face=&quot;Lucida Console&quot;&gt;MoveMsg: move info&lt;br&gt;&lt;/font&gt;&lt;/div&gt;&lt;div align=&quot;left&quot;&gt;&lt;font face=&quot;Lucida Console&quot;&gt;ChatMsg: chat message&lt;/font&gt;&lt;/div&gt;&lt;div align=&quot;left&quot;&gt;&lt;font face=&quot;Lucida Console&quot;&gt;CheatMsg: cheating message&lt;/font&gt;&lt;/div&gt;" style="text;html=1;align=left;verticalAlign=middle;resizable=0;points=[];autosize=1;strokeColor=none;fillColor=none;" parent="1" vertex="1">
          <mxGeometry x="470" y="480" width="210" height="90" as="geometry" />
        </mxCell>
        <mxCell id="RNK6RZdlCLIoAsQRZHr5-2" value="RemoteStub" style="rounded=1;whiteSpace=wrap;html=1;fillColor=#647687;fontColor=#ffffff;strokeColor=#314354;" vertex="1" parent="1">
          <mxGeometry x="240" y="495" width="120" height="60" as="geometry" />
        </mxCell>
        <mxCell id="RNK6RZdlCLIoAsQRZHr5-3" value="&lt;div&gt;ClientSkeleton&lt;/div&gt;" style="rounded=1;whiteSpace=wrap;html=1;fillColor=#6d8764;fontColor=#ffffff;strokeColor=#3A5431;" vertex="1" parent="1">
          <mxGeometry x="770" y="495" width="120" height="60" as="geometry" />
        </mxCell>
        <mxCell id="RNK6RZdlCLIoAsQRZHr5-4" value="&lt;div&gt;about &quot;RemoteStub&quot; and &quot;ClientSkeleton&quot;&lt;/div&gt;" style="shape=umlFrame;whiteSpace=wrap;html=1;pointerEvents=0;width=270;height=20;fillColor=default;shadow=0;gradientColor=none;swimlaneFillColor=default;" vertex="1" parent="1">
          <mxGeometry x="370" y="600" width="410" height="170" as="geometry" />
        </mxCell>
        <mxCell id="RNK6RZdlCLIoAsQRZHr5-5" value="&lt;div&gt;Those two classes implement the same interfaces&lt;/div&gt;&lt;div&gt;as ClientHandler+Server and Client, respectively,&lt;/div&gt;&lt;div&gt;and serve as mocks to talk to from the other&lt;/div&gt;&lt;div&gt;part of the network when the app is run in socket mode.&lt;/div&gt;&lt;div&gt;Basically, socket mode mimics RMI functionality by&lt;br&gt;&lt;/div&gt;&lt;div&gt;transferring objects over the network.&lt;br&gt;&lt;/div&gt;" style="text;html=1;align=left;verticalAlign=middle;resizable=0;points=[];autosize=1;strokeColor=none;fillColor=none;" vertex="1" parent="1">
          <mxGeometry x="425" y="635" width="320" height="100" as="geometry" />
        </mxCell>
      </root>
    </mxGraphModel>
  </diagram>
</mxfile>
